<svg width="130" height="128" viewBox="0 0 130 128" fill="none" xmlns="http://www.w3.org/2000/svg">
<ellipse cx="65" cy="64" rx="65" ry="64" fill="#F6F6F6"/>
<path d="M91.1683 60.4763C92.5827 61.2084 93.2899 61.5744 93.6489 61.9651C94.7047 63.1141 94.7033 64.8807 93.6457 66.0281C93.2861 66.4182 92.5783 66.7831 91.1628 67.5129L53.4415 86.9612C52.2135 87.5943 51.5996 87.9108 51.1091 87.9842C49.6736 88.1988 48.2903 87.3549 47.8243 85.9803C47.6651 85.5107 47.6657 84.8199 47.6668 83.4384L47.6974 44.4824C47.6985 43.1009 47.6991 42.4101 47.859 41.9407C48.3272 40.5668 49.7118 39.7251 51.147 39.942C51.6373 40.0161 52.2507 40.3336 53.4777 40.9687L91.1683 60.4763Z" fill="#6D6868"/>
</svg>
